<svg xmlns="http://www.w3.org/2000/svg" width="16" height="16" class="bi bi-arrow-up-circle-fill" viewBox="0 0 16 16">
    <defs>
      <linearGradient id="grad1" x1="0%" y1="0%" x2="0%" y2="100%">
        <stop offset="0%" style="stop-color:#1ab1ff; stop-opacity:1" />
        <stop offset="100%" style="stop-color:#1177ff; stop-opacity:1" />
      </linearGradient>
    </defs>
      <path fill="url(#grad1)" d="M16 8A8 8 0 1 0 0 8a8 8 0 0 0 16 0m-7.5 3.5a.5.5 0 0 1-1 0V5.707L5.354 7.854a.5.5 0 1 1-.708-.708l3-3a.5.5 0 0 1 .708 0l3 3a.5.5 0 0 1-.708.708L8.5 5.707z"/>
</svg>